<svg xmlns="http://www.w3.org/2000/svg" xmlns:xlink="http://www.w3.org/1999/xlink" width="500" zoomAndPan="magnify" viewBox="0 0 375 149.999998" height="200" preserveAspectRatio="xMidYMid meet" version="1.0"><defs><g/><clipPath id="e5b37182c6"><path d="M 15.050781 28.664062 L 97.074219 28.664062 L 97.074219 121.324219 L 15.050781 121.324219 Z M 15.050781 28.664062 " clip-rule="nonzero"/></clipPath></defs><g clip-path="url(#e5b37182c6)"><path fill="#22181c" d="M 77.28125 72.671875 C 76.816406 72.671875 76.441406 72.292969 76.441406 71.828125 C 76.441406 67.722656 73.734375 64.382812 70.414062 64.382812 C 67.089844 64.382812 64.386719 67.722656 64.386719 71.828125 C 64.386719 72.292969 64.007812 72.671875 63.542969 72.671875 C 63.078125 72.671875 62.699219 72.292969 62.699219 71.828125 C 62.699219 66.792969 66.160156 62.699219 70.414062 62.699219 C 74.664062 62.699219 78.125 66.792969 78.125 71.828125 C 78.125 72.292969 77.746094 72.671875 77.28125 72.671875 Z M 46.984375 80.429688 C 47.449219 80.429688 47.824219 80.804688 47.824219 81.269531 C 47.824219 86.363281 51.199219 90.507812 55.347656 90.507812 C 59.496094 90.507812 62.871094 86.363281 62.871094 81.269531 C 62.871094 80.804688 63.246094 80.429688 63.714844 80.429688 C 64.179688 80.429688 64.554688 80.804688 64.554688 81.269531 C 64.554688 87.292969 60.425781 92.195312 55.347656 92.195312 C 50.269531 92.195312 46.140625 87.292969 46.140625 81.269531 C 46.140625 80.804688 46.515625 80.429688 46.984375 80.429688 Z M 33.636719 71.828125 C 33.636719 72.292969 33.261719 72.671875 32.796875 72.671875 C 32.332031 72.671875 31.953125 72.292969 31.953125 71.828125 C 31.953125 66.792969 35.414062 62.699219 39.664062 62.699219 C 43.917969 62.699219 47.378906 66.792969 47.378906 71.828125 C 47.378906 72.292969 47 72.671875 46.535156 72.671875 C 46.070312 72.671875 45.691406 72.292969 45.691406 71.828125 C 45.691406 67.722656 42.988281 64.382812 39.664062 64.382812 C 36.34375 64.382812 33.636719 67.722656 33.636719 71.828125 Z M 87.800781 47.902344 L 90.339844 38.949219 C 90.597656 38.988281 90.855469 39.015625 91.117188 39.015625 C 91.292969 39.015625 91.46875 39.003906 91.644531 38.988281 C 93.035156 38.847656 94.285156 38.175781 95.167969 37.097656 C 96.039062 36.03125 96.441406 34.6875 96.300781 33.316406 C 96.011719 30.480469 93.453125 28.40625 90.597656 28.691406 C 89.207031 28.832031 87.957031 29.503906 87.078125 30.582031 C 86.203125 31.648438 85.800781 32.992188 85.941406 34.363281 C 86.125 36.164062 87.226562 37.65625 88.738281 38.433594 L 86.144531 47.5625 C 85.582031 47.488281 85.007812 47.445312 84.425781 47.445312 L 27.699219 47.445312 C 27.382812 47.445312 27.070312 47.460938 26.761719 47.484375 L 24.191406 38.433594 C 25.703125 37.65625 26.804688 36.164062 26.988281 34.363281 C 27.128906 32.992188 26.722656 31.648438 25.851562 30.582031 C 24.972656 29.503906 23.722656 28.832031 22.332031 28.691406 C 19.480469 28.402344 16.917969 30.480469 16.625 33.316406 C 16.488281 34.6875 16.890625 36.03125 17.761719 37.097656 C 18.644531 38.175781 19.894531 38.847656 21.285156 38.988281 C 21.460938 39.003906 21.636719 39.015625 21.8125 39.015625 C 22.074219 39.015625 22.332031 38.988281 22.585938 38.949219 L 25.078125 47.71875 C 19.355469 48.921875 15.050781 53.972656 15.050781 60.003906 L 15.050781 93.914062 C 15.050781 100.535156 20.285156 105.960938 26.859375 106.335938 L 26.859375 119.921875 C 26.859375 120.480469 27.191406 120.984375 27.703125 121.207031 C 27.886719 121.285156 28.078125 121.324219 28.265625 121.324219 C 28.617188 121.324219 28.960938 121.195312 29.222656 120.949219 L 44.117188 107.234375 C 44.773438 106.667969 45.617188 106.355469 46.488281 106.355469 L 84.425781 106.355469 C 91.398438 106.355469 97.074219 100.722656 97.074219 93.796875 L 97.074219 60.003906 C 97.074219 54.242188 93.140625 49.371094 87.800781 47.902344 " fill-opacity="1" fill-rule="nonzero"/></g><g fill="#000000" fill-opacity="1"><g transform="translate(109.140445, 87.449285)"><g><path d="M 19.9375 -6.328125 L 6.484375 -6.328125 L 3.6875 0 L -0.03125 0 L 11.4375 -25.328125 L 15.015625 -25.328125 L 26.53125 0 L 22.71875 0 Z M 18.671875 -9.234375 L 13.203125 -21.640625 L 7.75 -9.234375 Z M 18.671875 -9.234375 "/></g></g></g><g fill="#000000" fill-opacity="1"><g transform="translate(135.628495, 87.449285)"><g><path d="M 11.65625 0.21875 C 9.695312 0.21875 7.953125 -0.203125 6.421875 -1.046875 C 4.890625 -1.890625 3.6875 -3.050781 2.8125 -4.53125 C 1.945312 -6.019531 1.515625 -7.707031 1.515625 -9.59375 C 1.515625 -11.46875 1.945312 -13.144531 2.8125 -14.625 C 3.6875 -16.113281 4.890625 -17.273438 6.421875 -18.109375 C 7.953125 -18.941406 9.695312 -19.359375 11.65625 -19.359375 C 13.394531 -19.359375 14.941406 -19.007812 16.296875 -18.3125 C 17.660156 -17.613281 18.71875 -16.597656 19.46875 -15.265625 L 16.828125 -13.5625 C 16.222656 -14.488281 15.472656 -15.179688 14.578125 -15.640625 C 13.691406 -16.097656 12.703125 -16.328125 11.609375 -16.328125 C 10.359375 -16.328125 9.234375 -16.046875 8.234375 -15.484375 C 7.234375 -14.929688 6.445312 -14.140625 5.875 -13.109375 C 5.3125 -12.085938 5.03125 -10.914062 5.03125 -9.59375 C 5.03125 -8.238281 5.3125 -7.046875 5.875 -6.015625 C 6.445312 -4.992188 7.234375 -4.207031 8.234375 -3.65625 C 9.234375 -3.101562 10.359375 -2.828125 11.609375 -2.828125 C 12.703125 -2.828125 13.691406 -3.054688 14.578125 -3.515625 C 15.472656 -3.972656 16.222656 -4.660156 16.828125 -5.578125 L 19.46875 -3.90625 C 18.71875 -2.582031 17.660156 -1.5625 16.296875 -0.84375 C 14.941406 -0.132812 13.394531 0.21875 11.65625 0.21875 Z M 11.65625 0.21875 "/></g></g></g><g fill="#000000" fill-opacity="1"><g transform="translate(156.290615, 87.449285)"><g><path d="M 10.28125 -19.359375 C 12.9375 -19.359375 14.96875 -18.707031 16.375 -17.40625 C 17.78125 -16.101562 18.484375 -14.160156 18.484375 -11.578125 L 18.484375 0 L 15.203125 0 L 15.203125 -2.53125 C 14.617188 -1.632812 13.789062 -0.953125 12.71875 -0.484375 C 11.644531 -0.015625 10.375 0.21875 8.90625 0.21875 C 6.757812 0.21875 5.039062 -0.296875 3.75 -1.328125 C 2.457031 -2.367188 1.8125 -3.734375 1.8125 -5.421875 C 1.8125 -7.117188 2.425781 -8.476562 3.65625 -9.5 C 4.882812 -10.519531 6.835938 -11.03125 9.515625 -11.03125 L 15.015625 -11.03125 L 15.015625 -11.71875 C 15.015625 -13.21875 14.578125 -14.363281 13.703125 -15.15625 C 12.835938 -15.957031 11.5625 -16.359375 9.875 -16.359375 C 8.738281 -16.359375 7.628906 -16.171875 6.546875 -15.796875 C 5.460938 -15.421875 4.546875 -14.921875 3.796875 -14.296875 L 2.359375 -16.90625 C 3.335938 -17.695312 4.515625 -18.300781 5.890625 -18.71875 C 7.273438 -19.144531 8.738281 -19.359375 10.28125 -19.359375 Z M 9.484375 -2.453125 C 10.804688 -2.453125 11.945312 -2.75 12.90625 -3.34375 C 13.875 -3.9375 14.578125 -4.773438 15.015625 -5.859375 L 15.015625 -8.546875 L 9.65625 -8.546875 C 6.71875 -8.546875 5.25 -7.554688 5.25 -5.578125 C 5.25 -4.609375 5.617188 -3.84375 6.359375 -3.28125 C 7.109375 -2.726562 8.148438 -2.453125 9.484375 -2.453125 Z M 9.484375 -2.453125 "/></g></g></g><g fill="#000000" fill-opacity="1"><g transform="translate(177.929752, 87.449285)"><g><path d="M 21.390625 -26.84375 L 21.390625 0 L 18.0625 0 L 18.0625 -3.046875 C 17.289062 -1.984375 16.3125 -1.171875 15.125 -0.609375 C 13.945312 -0.0546875 12.644531 0.21875 11.21875 0.21875 C 9.363281 0.21875 7.695312 -0.191406 6.21875 -1.015625 C 4.75 -1.835938 3.597656 -2.988281 2.765625 -4.46875 C 1.929688 -5.945312 1.515625 -7.65625 1.515625 -9.59375 C 1.515625 -11.519531 1.929688 -13.21875 2.765625 -14.6875 C 3.597656 -16.164062 4.75 -17.3125 6.21875 -18.125 C 7.695312 -18.945312 9.363281 -19.359375 11.21875 -19.359375 C 12.59375 -19.359375 13.859375 -19.097656 15.015625 -18.578125 C 16.171875 -18.054688 17.132812 -17.289062 17.90625 -16.28125 L 17.90625 -26.84375 Z M 11.5 -2.828125 C 12.707031 -2.828125 13.804688 -3.109375 14.796875 -3.671875 C 15.785156 -4.234375 16.554688 -5.023438 17.109375 -6.046875 C 17.671875 -7.078125 17.953125 -8.257812 17.953125 -9.59375 C 17.953125 -10.914062 17.671875 -12.085938 17.109375 -13.109375 C 16.554688 -14.140625 15.785156 -14.929688 14.796875 -15.484375 C 13.804688 -16.046875 12.707031 -16.328125 11.5 -16.328125 C 10.269531 -16.328125 9.164062 -16.046875 8.1875 -15.484375 C 7.21875 -14.929688 6.445312 -14.140625 5.875 -13.109375 C 5.3125 -12.085938 5.03125 -10.914062 5.03125 -9.59375 C 5.03125 -8.257812 5.3125 -7.078125 5.875 -6.046875 C 6.445312 -5.023438 7.21875 -4.234375 8.1875 -3.671875 C 9.164062 -3.109375 10.269531 -2.828125 11.5 -2.828125 Z M 11.5 -2.828125 "/></g></g></g><g fill="#000000" fill-opacity="1"><g transform="translate(202.608508, 87.449285)"><g><path d="M 20.625 -9.484375 C 20.625 -9.210938 20.597656 -8.863281 20.546875 -8.4375 L 5 -8.4375 C 5.207031 -6.75 5.945312 -5.390625 7.21875 -4.359375 C 8.488281 -3.335938 10.0625 -2.828125 11.9375 -2.828125 C 14.226562 -2.828125 16.078125 -3.597656 17.484375 -5.140625 L 19.390625 -2.890625 C 18.523438 -1.878906 17.445312 -1.109375 16.15625 -0.578125 C 14.863281 -0.046875 13.421875 0.21875 11.828125 0.21875 C 9.804688 0.21875 8.007812 -0.195312 6.4375 -1.03125 C 4.875 -1.863281 3.660156 -3.023438 2.796875 -4.515625 C 1.941406 -6.015625 1.515625 -7.707031 1.515625 -9.59375 C 1.515625 -11.445312 1.929688 -13.117188 2.765625 -14.609375 C 3.597656 -16.109375 4.742188 -17.273438 6.203125 -18.109375 C 7.660156 -18.941406 9.304688 -19.359375 11.140625 -19.359375 C 12.972656 -19.359375 14.609375 -18.941406 16.046875 -18.109375 C 17.484375 -17.273438 18.601562 -16.109375 19.40625 -14.609375 C 20.21875 -13.117188 20.625 -11.410156 20.625 -9.484375 Z M 11.140625 -16.421875 C 9.484375 -16.421875 8.09375 -15.914062 6.96875 -14.90625 C 5.84375 -13.894531 5.1875 -12.566406 5 -10.921875 L 17.296875 -10.921875 C 17.109375 -12.546875 16.453125 -13.867188 15.328125 -14.890625 C 14.203125 -15.910156 12.804688 -16.421875 11.140625 -16.421875 Z M 11.140625 -16.421875 "/></g></g></g><g fill="#000000" fill-opacity="1"><g transform="translate(224.754256, 87.449285)"><g><path d="M 27.28125 -19.359375 C 29.695312 -19.359375 31.609375 -18.65625 33.015625 -17.25 C 34.429688 -15.851562 35.140625 -13.78125 35.140625 -11.03125 L 35.140625 0 L 31.65625 0 L 31.65625 -10.640625 C 31.65625 -12.492188 31.226562 -13.890625 30.375 -14.828125 C 29.519531 -15.773438 28.296875 -16.25 26.703125 -16.25 C 24.941406 -16.25 23.539062 -15.695312 22.5 -14.59375 C 21.46875 -13.5 20.953125 -11.925781 20.953125 -9.875 L 20.953125 0 L 17.484375 0 L 17.484375 -10.640625 C 17.484375 -12.492188 17.050781 -13.890625 16.1875 -14.828125 C 15.332031 -15.773438 14.109375 -16.25 12.515625 -16.25 C 10.753906 -16.25 9.351562 -15.695312 8.3125 -14.59375 C 7.28125 -13.5 6.765625 -11.925781 6.765625 -9.875 L 6.765625 0 L 3.296875 0 L 3.296875 -19.171875 L 6.625 -19.171875 L 6.625 -16.328125 C 7.320312 -17.304688 8.238281 -18.054688 9.375 -18.578125 C 10.507812 -19.097656 11.800781 -19.359375 13.25 -19.359375 C 14.738281 -19.359375 16.0625 -19.054688 17.21875 -18.453125 C 18.382812 -17.847656 19.28125 -16.96875 19.90625 -15.8125 C 20.625 -16.925781 21.628906 -17.796875 22.921875 -18.421875 C 24.210938 -19.046875 25.664062 -19.359375 27.28125 -19.359375 Z M 27.28125 -19.359375 "/></g></g></g><g fill="#000000" fill-opacity="1"><g transform="translate(263.002697, 87.449285)"><g><path d="M 3.296875 -19.171875 L 6.765625 -19.171875 L 6.765625 0 L 3.296875 0 Z M 5.03125 -22.875 C 4.351562 -22.875 3.789062 -23.085938 3.34375 -23.515625 C 2.90625 -23.953125 2.6875 -24.484375 2.6875 -25.109375 C 2.6875 -25.742188 2.90625 -26.28125 3.34375 -26.71875 C 3.789062 -27.164062 4.351562 -27.390625 5.03125 -27.390625 C 5.707031 -27.390625 6.269531 -27.175781 6.71875 -26.75 C 7.164062 -26.332031 7.390625 -25.8125 7.390625 -25.1875 C 7.390625 -24.53125 7.164062 -23.976562 6.71875 -23.53125 C 6.269531 -23.09375 5.707031 -22.875 5.03125 -22.875 Z M 5.03125 -22.875 "/></g></g></g><g fill="#000000" fill-opacity="1"><g transform="translate(273.098555, 87.449285)"><g><path d="M 11.65625 0.21875 C 9.695312 0.21875 7.953125 -0.203125 6.421875 -1.046875 C 4.890625 -1.890625 3.6875 -3.050781 2.8125 -4.53125 C 1.945312 -6.019531 1.515625 -7.707031 1.515625 -9.59375 C 1.515625 -11.46875 1.945312 -13.144531 2.8125 -14.625 C 3.6875 -16.113281 4.890625 -17.273438 6.421875 -18.109375 C 7.953125 -18.941406 9.695312 -19.359375 11.65625 -19.359375 C 13.394531 -19.359375 14.941406 -19.007812 16.296875 -18.3125 C 17.660156 -17.613281 18.71875 -16.597656 19.46875 -15.265625 L 16.828125 -13.5625 C 16.222656 -14.488281 15.472656 -15.179688 14.578125 -15.640625 C 13.691406 -16.097656 12.703125 -16.328125 11.609375 -16.328125 C 10.359375 -16.328125 9.234375 -16.046875 8.234375 -15.484375 C 7.234375 -14.929688 6.445312 -14.140625 5.875 -13.109375 C 5.3125 -12.085938 5.03125 -10.914062 5.03125 -9.59375 C 5.03125 -8.238281 5.3125 -7.046875 5.875 -6.015625 C 6.445312 -4.992188 7.234375 -4.207031 8.234375 -3.65625 C 9.234375 -3.101562 10.359375 -2.828125 11.609375 -2.828125 C 12.703125 -2.828125 13.691406 -3.054688 14.578125 -3.515625 C 15.472656 -3.972656 16.222656 -4.660156 16.828125 -5.578125 L 19.46875 -3.90625 C 18.71875 -2.582031 17.660156 -1.5625 16.296875 -0.84375 C 14.941406 -0.132812 13.394531 0.21875 11.65625 0.21875 Z M 11.65625 0.21875 "/></g></g></g><g fill="#000000" fill-opacity="1"><g transform="translate(293.760675, 87.449285)"><g><path d="M 20.84375 -13.140625 C 22.3125 -12.722656 23.46875 -11.976562 24.3125 -10.90625 C 25.15625 -9.832031 25.578125 -8.476562 25.578125 -6.84375 C 25.578125 -4.644531 24.75 -2.953125 23.09375 -1.765625 C 21.445312 -0.585938 19.046875 0 15.890625 0 L 3.796875 0 L 3.796875 -25.328125 L 15.15625 -25.328125 C 18.050781 -25.328125 20.289062 -24.75 21.875 -23.59375 C 23.457031 -22.4375 24.25 -20.832031 24.25 -18.78125 C 24.25 -17.457031 23.941406 -16.3125 23.328125 -15.34375 C 22.710938 -14.375 21.882812 -13.640625 20.84375 -13.140625 Z M 7.421875 -22.40625 L 7.421875 -14.296875 L 14.84375 -14.296875 C 16.695312 -14.296875 18.125 -14.640625 19.125 -15.328125 C 20.125 -16.015625 20.625 -17.019531 20.625 -18.34375 C 20.625 -19.675781 20.125 -20.6875 19.125 -21.375 C 18.125 -22.0625 16.695312 -22.40625 14.84375 -22.40625 Z M 15.734375 -2.9375 C 17.785156 -2.9375 19.328125 -3.269531 20.359375 -3.9375 C 21.398438 -4.613281 21.921875 -5.675781 21.921875 -7.125 C 21.921875 -9.945312 19.859375 -11.359375 15.734375 -11.359375 L 7.421875 -11.359375 L 7.421875 -2.9375 Z M 15.734375 -2.9375 "/></g></g></g><g fill="#000000" fill-opacity="1"><g transform="translate(321.153368, 87.449285)"><g><path d="M 11.5 0.21875 C 9.601562 0.21875 7.894531 -0.203125 6.375 -1.046875 C 4.851562 -1.890625 3.660156 -3.050781 2.796875 -4.53125 C 1.941406 -6.019531 1.515625 -7.707031 1.515625 -9.59375 C 1.515625 -11.46875 1.941406 -13.144531 2.796875 -14.625 C 3.660156 -16.113281 4.851562 -17.273438 6.375 -18.109375 C 7.894531 -18.941406 9.601562 -19.359375 11.5 -19.359375 C 13.40625 -19.359375 15.113281 -18.941406 16.625 -18.109375 C 18.132812 -17.273438 19.316406 -16.113281 20.171875 -14.625 C 21.023438 -13.144531 21.453125 -11.46875 21.453125 -9.59375 C 21.453125 -7.707031 21.023438 -6.019531 20.171875 -4.53125 C 19.316406 -3.050781 18.132812 -1.890625 16.625 -1.046875 C 15.113281 -0.203125 13.40625 0.21875 11.5 0.21875 Z M 11.5 -2.828125 C 12.738281 -2.828125 13.84375 -3.109375 14.8125 -3.671875 C 15.789062 -4.234375 16.554688 -5.023438 17.109375 -6.046875 C 17.671875 -7.078125 17.953125 -8.257812 17.953125 -9.59375 C 17.953125 -10.914062 17.671875 -12.085938 17.109375 -13.109375 C 16.554688 -14.140625 15.789062 -14.929688 14.8125 -15.484375 C 13.84375 -16.046875 12.738281 -16.328125 11.5 -16.328125 C 10.269531 -16.328125 9.164062 -16.046875 8.1875 -15.484375 C 7.21875 -14.929688 6.445312 -14.140625 5.875 -13.109375 C 5.3125 -12.085938 5.03125 -10.914062 5.03125 -9.59375 C 5.03125 -8.257812 5.3125 -7.078125 5.875 -6.046875 C 6.445312 -5.023438 7.21875 -4.234375 8.1875 -3.671875 C 9.164062 -3.109375 10.269531 -2.828125 11.5 -2.828125 Z M 11.5 -2.828125 "/></g></g></g><g fill="#000000" fill-opacity="1"><g transform="translate(344.131382, 87.449285)"><g><path d="M 14.078125 -1.125 C 13.566406 -0.6875 12.9375 -0.351562 12.1875 -0.125 C 11.445312 0.101562 10.675781 0.21875 9.875 0.21875 C 7.945312 0.21875 6.453125 -0.296875 5.390625 -1.328125 C 4.328125 -2.367188 3.796875 -3.859375 3.796875 -5.796875 L 3.796875 -16.328125 L 0.546875 -16.328125 L 0.546875 -19.171875 L 3.796875 -19.171875 L 3.796875 -23.375 L 7.28125 -23.375 L 7.28125 -19.171875 L 12.78125 -19.171875 L 12.78125 -16.328125 L 7.28125 -16.328125 L 7.28125 -5.9375 C 7.28125 -4.894531 7.535156 -4.097656 8.046875 -3.546875 C 8.566406 -2.992188 9.3125 -2.71875 10.28125 -2.71875 C 11.34375 -2.71875 12.242188 -3.019531 12.984375 -3.625 Z M 14.078125 -1.125 "/></g></g></g></svg>